<svg width="29" height="17" viewBox="0 0 29 17" fill="none" xmlns="http://www.w3.org/2000/svg">
<path d="M5.45605 14.2686H17.5973C18.3804 14.2243 19.1171 13.8063 19.6458 13.1061C20.1745 12.4059 20.452 11.4807 20.4176 10.5333V6.25232C20.452 5.30499 20.1745 4.37979 19.6458 3.67958C19.1171 2.97938 18.3804 2.56133 17.5973 2.51709H5.49835C4.71521 2.56133 3.97853 2.97938 3.44985 3.67958C2.92116 4.37979 2.64362 5.30499 2.67807 6.25232V10.5333C2.64333 11.4723 2.9151 12.3901 3.43478 13.0889C3.95447 13.7876 4.68042 14.2113 5.45605 14.2686Z" fill="#FFD600"/>
<path d="M27.5811 11.0111C27.868 11.0452 28.1547 10.9433 28.3808 10.7271C28.607 10.5108 28.755 10.1968 28.7938 9.85129V6.78124C28.755 6.43568 28.607 6.12176 28.3808 5.90547C28.1547 5.68919 27.868 5.58737 27.5811 5.62144V11.1816" fill="white"/>
<path d="M21.856 0.828613H4.94838C2.76774 0.828613 1 2.96674 1 5.60425V11.1986C1 13.8361 2.76774 15.9742 4.94838 15.9742H21.856C24.0366 15.9742 25.8044 13.8361 25.8044 11.1986V5.60425C25.8044 2.96674 24.0366 0.828613 21.856 0.828613Z" stroke="white" stroke-miterlimit="10"/>
</svg>
