<svg width="21" height="39" viewBox="0 0 21 39" fill="none" xmlns="http://www.w3.org/2000/svg">
<path d="M5.83856 21.9432C5.69259 21.9432 2.48139 21.9432 1.02175 21.9432C0.243273 21.9432 0 21.6513 0 20.9215C0 18.9753 0 16.9805 0 15.0343C0 14.2558 0.291928 14.0125 1.02175 14.0125H5.83856C5.83856 13.8666 5.83856 11.0446 5.83856 9.73093C5.83856 7.78474 6.17914 5.93586 7.15223 4.23295C8.17398 2.48139 9.63362 1.31367 11.4825 0.63251C12.6989 0.194618 13.9152 0 15.2289 0H19.997C20.6782 0 20.9701 0.291928 20.9701 0.973093V6.51972C20.9701 7.20089 20.6782 7.49281 19.997 7.49281C18.6834 7.49281 17.3697 7.49281 16.056 7.54147C14.7424 7.54147 14.0612 8.17398 14.0612 9.53631C14.0125 10.9959 14.0612 12.4069 14.0612 13.9152H19.7051C20.4836 13.9152 20.7755 14.2072 20.7755 14.9856V20.8728C20.7755 21.6513 20.5323 21.8946 19.7051 21.8946C17.9536 21.8946 14.2072 21.8946 14.0612 21.8946V37.756C14.0612 38.5831 13.8179 38.875 12.9421 38.875C10.8986 38.875 8.9038 38.875 6.8603 38.875C6.13048 38.875 5.83856 38.5831 5.83856 37.8533C5.83856 32.7446 5.83856 22.0892 5.83856 21.9432Z" fill="#1F87FD"/>
</svg>
