<svg width="100" height="100" viewBox="0 0 100 100" fill="none" xmlns="http://www.w3.org/2000/svg">
<g clip-path="url(#clip0_187_626)">
<path fill-rule="evenodd" clip-rule="evenodd" d="M50.0076 5.72538e-07C40.1179 -0.00149571 30.4498 2.92987 22.2262 8.42336C14.0026 13.9169 7.59281 21.7257 3.80749 30.8623C0.0221741 39.9989 -0.96863 50.0529 0.960389 59.7526C2.88941 69.4524 7.6516 78.3622 14.6447 85.3553C21.6378 92.3484 30.5476 97.1106 40.2473 99.0396C49.9471 100.969 60.0011 99.9778 69.1377 96.1925C78.2743 92.4072 86.0831 85.9974 91.5766 77.7738C97.0701 69.5501 100.001 59.8821 100 49.9924C99.998 36.7342 94.7303 24.0196 85.3553 14.6447C75.9804 5.26969 63.2658 0.0020065 50.0076 5.72538e-07ZM50.0076 97.405C40.6299 97.4065 31.4624 94.6271 23.6645 89.4182C15.8665 84.2094 9.78835 76.8051 6.19864 68.1417C2.60894 59.4783 1.66893 49.945 3.4975 40.7473C5.32607 31.5497 9.84109 23.1008 16.4716 16.4693C23.102 9.83779 31.5501 5.32143 40.7475 3.49139C49.9448 1.66135 59.4783 2.59984 68.1423 6.18816C76.8062 9.77649 84.2115 15.8535 89.4216 23.6506C94.6317 31.4477 97.4126 40.6148 97.4126 49.9924C97.4126 62.5657 92.4184 74.6241 83.5285 83.5155C74.6385 92.4069 62.5809 97.403 50.0076 97.405Z" fill="white"/>
<path d="M48.0017 8.97266C47.8432 8.97266 47.6912 9.03563 47.5791 9.14771C47.467 9.2598 47.4041 9.41181 47.4041 9.57033V16.7121C47.4021 16.8713 47.3374 17.0233 47.2242 17.1352C47.1109 17.2471 46.9581 17.3098 46.7988 17.3098H43.402C43.3235 17.3098 43.2458 17.2943 43.1732 17.2643C43.1007 17.2342 43.0348 17.1902 42.9793 17.1347C42.9238 17.0792 42.8798 17.0133 42.8498 16.9408C42.8198 16.8683 42.8043 16.7906 42.8043 16.7121V9.57033C42.8023 9.41242 42.7387 9.26154 42.6271 9.14988C42.5154 9.03822 42.3645 8.97462 42.2066 8.97266H40.7616C40.6031 8.97266 40.4511 9.03563 40.339 9.14771C40.2269 9.2598 40.164 9.41181 40.164 9.57033V16.7121C40.162 16.87 40.0984 17.0209 39.9867 17.1325C39.8751 17.2442 39.7242 17.3078 39.5663 17.3098H36.1618C36.0039 17.3078 35.8531 17.2442 35.7414 17.1325C35.6297 17.0209 35.5661 16.87 35.5642 16.7121V9.57033C35.5622 9.41242 35.4986 9.26154 35.3869 9.14988C35.2753 9.03822 35.1244 8.97462 34.9665 8.97266H33.5215C33.3636 8.97462 33.2127 9.03822 33.1011 9.14988C32.9894 9.26154 32.9258 9.41242 32.9238 9.57033V19.3524C32.9258 19.5103 32.9894 19.6612 33.1011 19.7729C33.2127 19.8846 33.3636 19.9482 33.5215 19.9501H49.4089C49.5674 19.9501 49.7195 19.8871 49.8315 19.7751C49.9436 19.663 50.0066 19.511 50.0066 19.3524V9.57033C50.0066 9.41181 49.9436 9.2598 49.8315 9.14771C49.7195 9.03563 49.5674 8.97266 49.4089 8.97266H48.0017Z" fill="white"/>
<path d="M23.8302 30.8291C23.9093 30.8301 23.9879 30.8154 24.0612 30.7858C24.1346 30.7562 24.2014 30.7124 24.2577 30.6568C24.314 30.6012 24.3587 30.5349 24.3892 30.4619C24.4197 30.3889 24.4354 30.3106 24.4354 30.2314V28.794C24.4354 28.7149 24.4197 28.6365 24.3892 28.5635C24.3587 28.4905 24.314 28.4243 24.2577 28.3687C24.2014 28.3131 24.1346 28.2692 24.0612 28.2396C23.9879 28.2101 23.9093 28.1953 23.8302 28.1963H10.2124C10.1333 28.1953 10.0548 28.2101 9.98137 28.2396C9.90798 28.2692 9.8412 28.3131 9.7849 28.3687C9.72859 28.4243 9.68389 28.4905 9.65338 28.5635C9.62287 28.6365 9.60717 28.7149 9.60717 28.794V30.2314C9.60717 30.3106 9.62287 30.3889 9.65338 30.4619C9.68389 30.5349 9.72859 30.6012 9.7849 30.6568C9.8412 30.7124 9.90798 30.7562 9.98137 30.7858C10.0548 30.8154 10.1333 30.8301 10.2124 30.8291H12.1794C12.2586 30.8291 12.3369 30.8448 12.4099 30.8753C12.4829 30.9058 12.5491 30.9505 12.6047 31.0068C12.6603 31.0631 12.7042 31.1299 12.7338 31.2033C12.7634 31.2767 12.7781 31.3552 12.7771 31.4343V46.83C12.7771 46.9085 12.7616 46.9862 12.7316 47.0587C12.7016 47.1312 12.6575 47.1971 12.602 47.2526C12.5465 47.3081 12.4807 47.3522 12.4081 47.3822C12.3356 47.4122 12.2579 47.4277 12.1794 47.4277H10.2048C10.0456 47.4277 9.89282 47.4904 9.77953 47.6023C9.66624 47.7141 9.6016 47.8662 9.59961 48.0254V49.4704C9.6016 49.6296 9.66624 49.7816 9.77953 49.8934C9.89282 50.0053 10.0456 50.068 10.2048 50.068H23.8226C23.9818 50.068 24.1347 50.0053 24.2479 49.8934C24.3612 49.7816 24.4259 49.6296 24.4279 49.4704V48.0254C24.4259 47.8662 24.3612 47.7141 24.2479 47.6023C24.1347 47.4904 23.9818 47.4277 23.8226 47.4277H21.8556C21.6971 47.4277 21.5451 47.3647 21.433 47.2526C21.3209 47.1405 21.2579 46.9885 21.2579 46.83V31.4343C21.2569 31.3552 21.2717 31.2767 21.3013 31.2033C21.3308 31.1299 21.3747 31.0631 21.4303 31.0068C21.4859 30.9505 21.5521 30.9058 21.6251 30.8753C21.6981 30.8448 21.7765 30.8291 21.8556 30.8291H23.8302ZM18.6176 46.83C18.6157 46.9879 18.5521 47.1388 18.4404 47.2505C18.3287 47.3621 18.1778 47.4257 18.0199 47.4277H16.0151C15.8572 47.4257 15.7063 47.3621 15.5947 47.2505C15.483 47.1388 15.4194 46.9879 15.4174 46.83V31.4343C15.4174 31.2751 15.4801 31.1223 15.592 31.009C15.7039 30.8957 15.8559 30.8311 16.0151 30.8291H18.0199C18.1791 30.8311 18.3311 30.8957 18.443 31.009C18.5549 31.1223 18.6176 31.2751 18.6176 31.4343V46.83Z" fill="white"/>
<path d="M49.4402 33.9839H43.3878C43.3093 33.9839 43.2316 33.9684 43.1591 33.9384C43.0866 33.9083 43.0207 33.8643 42.9652 33.8088C42.9097 33.7533 42.8657 33.6874 42.8356 33.6149C42.8056 33.5424 42.7902 33.4647 42.7902 33.3862V31.4343C42.7892 31.3552 42.8039 31.2766 42.8335 31.2033C42.863 31.1299 42.9069 31.0631 42.9625 31.0068C43.0181 30.9505 43.0843 30.9058 43.1573 30.8753C43.2304 30.8448 43.3087 30.8291 43.3878 30.8291H49.4402C49.5987 30.8291 49.7507 30.7661 49.8628 30.654C49.9749 30.5419 50.0378 30.3899 50.0378 30.2314V28.794C50.0378 28.6354 49.9749 28.4834 49.8628 28.3713C49.7507 28.2593 49.5987 28.1963 49.4402 28.1963H33.5527C33.3942 28.1963 33.2422 28.2593 33.1301 28.3713C33.018 28.4834 32.9551 28.6354 32.9551 28.794V30.2314C32.9551 30.3899 33.018 30.5419 33.1301 30.654C33.2422 30.7661 33.3942 30.8291 33.5527 30.8291H39.6051C39.7643 30.8311 39.9163 30.8957 40.0282 31.009C40.1401 31.1223 40.2028 31.2751 40.2028 31.4343V33.3862C40.2028 33.4647 40.1873 33.5424 40.1573 33.6149C40.1272 33.6874 40.0832 33.7533 40.0277 33.8088C39.9722 33.8643 39.9063 33.9083 39.8338 33.9384C39.7613 33.9684 39.6836 33.9839 39.6051 33.9839H33.5527C33.3948 33.9858 33.244 34.0494 33.1323 34.1611C33.0206 34.2727 32.957 34.4236 32.9551 34.5815V49.4098C32.957 49.5677 33.0206 49.7186 33.1323 49.8302C33.244 49.9419 33.3948 50.0055 33.5527 50.0075H34.9978C35.1557 50.0055 35.3065 49.9419 35.4182 49.8302C35.5299 49.7186 35.5935 49.5677 35.5954 49.4098V37.2219C35.5974 37.064 35.661 36.9131 35.7726 36.8014C35.8843 36.6897 36.0352 36.6261 36.1931 36.6242H37.1463C37.3042 36.6261 37.4551 36.6897 37.5668 36.8014C37.6784 36.9131 37.742 37.064 37.744 37.2219V49.4098C37.746 49.5677 37.8096 49.7186 37.9212 49.8302C38.0329 49.9419 38.1838 50.0055 38.3417 50.0075H39.7942C39.9521 50.0055 40.103 49.9419 40.2147 49.8302C40.3263 49.7186 40.3899 49.5677 40.3919 49.4098V37.2219C40.3919 37.0633 40.4549 36.9113 40.567 36.7992C40.679 36.6872 40.8311 36.6242 40.9896 36.6242H41.9806C42.1386 36.6261 42.2894 36.6897 42.4011 36.8014C42.5128 36.9131 42.5764 37.064 42.5783 37.2219V49.4098C42.5783 49.4883 42.5938 49.566 42.6238 49.6385C42.6539 49.711 42.6979 49.7769 42.7534 49.8324C42.8089 49.8879 42.8748 49.9319 42.9473 49.962C43.0198 49.992 43.0975 50.0075 43.176 50.0075H44.6134C44.7726 50.0075 44.9255 49.9447 45.0387 49.8329C45.152 49.721 45.2167 49.569 45.2187 49.4098V37.2219C45.2187 37.0633 45.2816 36.9113 45.3937 36.7992C45.5058 36.6872 45.6578 36.6242 45.8163 36.6242H46.7998C46.9591 36.6242 47.1119 36.6869 47.2252 36.7988C47.3384 36.9106 47.4031 37.0627 47.4051 37.2219V49.4098C47.4051 49.4883 47.4205 49.566 47.4506 49.6385C47.4806 49.711 47.5246 49.7769 47.5801 49.8324C47.6356 49.8879 47.7015 49.9319 47.774 49.962C47.8465 49.992 47.9243 50.0075 48.0027 50.0075H49.4402C49.5934 49.9997 49.7377 49.9333 49.8434 49.822C49.949 49.7108 50.0078 49.5632 50.0076 49.4098V34.5815C50.0078 34.4281 49.949 34.2805 49.8434 34.1693C49.7377 34.058 49.5934 33.9916 49.4402 33.9839Z" fill="white"/>
<path d="M16.8935 20.4266C20.1818 20.4266 22.8475 17.7609 22.8475 14.4726C22.8475 11.1843 20.1818 8.51855 16.8935 8.51855C13.6051 8.51855 10.9395 11.1843 10.9395 14.4726C10.9395 17.7609 13.6051 20.4266 16.8935 20.4266Z" fill="white"/>
</g>
<defs>
<clipPath id="clip0_187_626">
<rect width="100" height="100" fill="white"/>
</clipPath>
</defs>
</svg>
