<svg width="20" height="16" viewBox="0 0 20 16" fill="none" xmlns="http://www.w3.org/2000/svg">
<path fill-rule="evenodd" clip-rule="evenodd" d="M16.4284 0.271973H18.8961C19.0008 0.271973 19.1013 0.322288 19.1753 0.411848C19.2494 0.501409 19.291 0.622879 19.291 0.749537V14.8377C19.291 14.9643 19.2494 15.0858 19.1753 15.1754C19.1013 15.2649 19.0008 15.3152 18.8961 15.3152H16.4284C16.3237 15.3152 16.2232 15.2649 16.1492 15.1754C16.0751 15.0858 16.0335 14.9643 16.0335 14.8377V0.749537C16.0335 0.622879 16.0751 0.501409 16.1492 0.411848C16.2232 0.322288 16.3237 0.271973 16.4284 0.271973ZM0.380999 9.60153H2.84874C2.95234 9.60578 3.05074 9.65746 3.12404 9.74611C3.19734 9.83477 3.24007 9.95379 3.24358 10.0791V14.8377C3.24358 14.9643 3.20198 15.0858 3.12794 15.1754C3.05389 15.2649 2.95346 15.3152 2.84874 15.3152H0.380999C0.329791 15.3153 0.279102 15.3028 0.231965 15.2786C0.184828 15.2544 0.142211 15.219 0.106666 15.1744C0.0711201 15.1298 0.0433761 15.077 0.0250932 15.0192C0.00681036 14.9613 -0.00163537 14.8996 0.000261246 14.8377V10.0791C0.000195971 9.95534 0.0398537 9.83638 0.110878 9.74729C0.181901 9.65821 0.278744 9.60595 0.380999 9.60153ZM5.73953 6.83848H8.19317C8.24555 6.83609 8.29778 6.8468 8.34658 6.86996C8.39538 6.89311 8.4397 6.9282 8.47677 6.97303C8.51383 7.01786 8.54284 7.07147 8.56199 7.13049C8.58113 7.18952 8.58999 7.25269 8.58801 7.31604V14.8377C8.58999 14.901 8.58113 14.9642 8.56199 15.0232C8.54284 15.0823 8.51383 15.1359 8.47677 15.1807C8.4397 15.2255 8.39538 15.2606 8.34658 15.2838C8.29778 15.3069 8.24555 15.3176 8.19317 15.3152H5.73953C5.68715 15.3176 5.63492 15.3069 5.58612 15.2838C5.53732 15.2606 5.493 15.2255 5.45593 15.1807C5.41887 15.1359 5.38985 15.0823 5.37071 15.0232C5.35157 14.9642 5.34271 14.901 5.34469 14.8377V7.35016C5.34271 7.2868 5.35157 7.22363 5.37071 7.16461C5.38985 7.10558 5.41887 7.05198 5.45593 7.00714C5.493 6.96231 5.53732 6.92722 5.58612 6.90407C5.63492 6.88091 5.68715 6.8702 5.73953 6.87259V6.83848ZM11.084 3.17147H13.5517C13.654 3.17589 13.7508 3.22815 13.8218 3.31723C13.8928 3.40632 13.9325 3.52528 13.9324 3.64903V14.8377C13.9343 14.8996 13.9259 14.9613 13.9076 15.0192C13.8893 15.077 13.8616 15.1298 13.826 15.1744C13.7905 15.219 13.7479 15.2544 13.7007 15.2786C13.6536 15.3028 13.6029 15.3153 13.5517 15.3152H11.084C10.9792 15.3152 10.8788 15.2649 10.8048 15.1754C10.7307 15.0858 10.6891 14.9643 10.6891 14.8377V3.64903C10.6926 3.52373 10.7354 3.40471 10.8087 3.31606C10.882 3.2274 10.9804 3.17572 11.084 3.17147Z" fill="white"/>
</svg>
