<svg width="39" height="33" viewBox="0 0 39 33" fill="none" xmlns="http://www.w3.org/2000/svg">
<path d="M39 4.65995C37.5375 5.29896 36.0262 5.74136 34.4175 5.93798C36.075 4.95488 37.3425 3.38191 37.9275 1.46486C36.3675 2.39881 34.6613 3.03783 32.8575 3.43107C31.395 1.8581 29.2988 0.875 27.0075 0.875C22.5713 0.875 19.0125 4.51248 19.0125 8.93644C19.0125 9.57546 19.0613 10.1653 19.2075 10.7552C12.5775 10.4603 6.7275 7.21601 2.77875 2.34965C-0.0487497 7.46179 3.12 11.6891 5.21625 13.1146C3.94875 13.1146 2.68125 12.7214 1.60875 12.1315C1.60875 16.1131 4.3875 19.4065 7.995 20.1438C7.215 20.3896 5.46 20.5371 4.3875 20.2913C5.41125 23.4864 8.385 25.8458 11.8463 25.895C9.11625 28.0578 5.11875 29.7782 0 29.2375C3.55875 31.5478 7.75125 32.875 12.285 32.875C27.0075 32.875 35.0025 20.5862 35.0025 9.9687C35.0025 9.62462 35.0025 9.28053 34.9538 8.93644C36.6112 7.70757 37.9762 6.28207 39 4.65995Z" fill="#1F87FD"/>
</svg>
