<svg width="44" height="19" viewBox="0 0 44 19" fill="none" xmlns="http://www.w3.org/2000/svg">
<rect x="0.75" y="0.75" width="42.5" height="17.5" rx="4.25" stroke="white" stroke-width="1.5"/>
<path d="M14.9658 4.92383H17.1533L13.7148 15H11.7256L8.32129 4.92383H10.5703L12.7578 12.5732L14.9658 4.92383ZM24.0781 8.12988C24.0781 7.60579 23.9391 7.2321 23.6611 7.00879C23.3877 6.78548 23.0026 6.67383 22.5059 6.67383H20.5439V9.64062H22.5059C23.0026 9.64062 23.3877 9.51986 23.6611 9.27832C23.9391 9.03678 24.0781 8.65397 24.0781 8.12988ZM26.1631 8.11621C26.1631 9.30566 25.8623 10.1465 25.2607 10.6387C24.6592 11.1309 23.8001 11.377 22.6836 11.377H20.5439V15H18.4521V4.92383H22.8408C23.8525 4.92383 24.6592 5.18359 25.2607 5.70312C25.8623 6.22266 26.1631 7.02702 26.1631 8.11621ZM27.708 4.92383H29.916L33.9287 11.958V4.92383H35.8906V15H33.7852L29.6699 7.84277V15H27.708V4.92383Z" fill="white"/>
</svg>
